<?xml version="1.0" encoding="UTF-8"?><svg xmlns="http://www.w3.org/2000/svg" xmlns:xlink="http://www.w3.org/1999/xlink" fill-opacity="1" color-rendering="auto" color-interpolation="auto" text-rendering="auto" stroke="black" stroke-linecap="square" width="202" stroke-miterlimit="10" shape-rendering="auto" stroke-opacity="1" fill="black" stroke-dasharray="none" font-weight="normal" stroke-width="1" height="293" font-family="'Dialog'" font-style="normal" stroke-linejoin="miter" font-size="12px" stroke-dashoffset="0" image-rendering="auto">
  <!--Generated by ySVG 2.6-->
  <defs id="genericDefs"/>
  <g>
    <defs id="defs1">
      <clipPath clipPathUnits="userSpaceOnUse" id="clipPath1">
        <path d="M0 0 L202 0 L202 293 L0 293 L0 0 Z"/>
      </clipPath>
      <clipPath clipPathUnits="userSpaceOnUse" id="clipPath2">
        <path d="M5 -15 L207 -15 L207 278 L5 278 L5 -15 Z"/>
      </clipPath>
    </defs>
    <g fill="white" text-rendering="geometricPrecision" shape-rendering="geometricPrecision" transform="translate(-5,15)" stroke="white">
      <rect x="5" width="202" height="293" y="-15" clip-path="url(#clipPath2)" stroke="none"/>
    </g>
    <g fill="rgb(255,204,0)" text-rendering="geometricPrecision" shape-rendering="geometricPrecision" transform="matrix(1,0,0,1,-5,15)" stroke="rgb(255,204,0)">
      <rect x="49.4652" width="55.8594" height="30" y="0" clip-path="url(#clipPath2)" stroke="none"/>
    </g>
    <g text-rendering="geometricPrecision" stroke-miterlimit="1.45" shape-rendering="geometricPrecision" transform="matrix(1,0,0,1,-5,15)" stroke-linecap="butt">
      <rect fill="none" x="49.4652" width="55.8594" height="30" y="0" clip-path="url(#clipPath2)"/>
      <text x="56.4652" xml:space="preserve" y="19.5352" clip-path="url(#clipPath2)" font-family="sans-serif" stroke="none">Node 1</text>
    </g>
    <g fill="rgb(255,204,0)" text-rendering="geometricPrecision" shape-rendering="geometricPrecision" transform="matrix(1,0,0,1,-5,15)" stroke="rgb(255,204,0)">
      <rect x="49.4652" width="55.8594" height="30" y="50" clip-path="url(#clipPath2)" stroke="none"/>
    </g>
    <g text-rendering="geometricPrecision" stroke-miterlimit="1.45" shape-rendering="geometricPrecision" transform="matrix(1,0,0,1,-5,15)" stroke-linecap="butt">
      <rect fill="none" x="49.4652" width="55.8594" height="30" y="50" clip-path="url(#clipPath2)"/>
      <text x="56.4652" xml:space="preserve" y="69.5352" clip-path="url(#clipPath2)" font-family="sans-serif" stroke="none">Node 2</text>
    </g>
    <g fill="rgb(255,204,0)" text-rendering="geometricPrecision" shape-rendering="geometricPrecision" transform="matrix(1,0,0,1,-5,15)" stroke="rgb(255,204,0)">
      <rect x="49.4652" width="55.8594" height="30" y="111" clip-path="url(#clipPath2)" stroke="none"/>
    </g>
    <g text-rendering="geometricPrecision" stroke-miterlimit="1.45" shape-rendering="geometricPrecision" transform="matrix(1,0,0,1,-5,15)" stroke-linecap="butt">
      <rect fill="none" x="49.4652" width="55.8594" height="30" y="111" clip-path="url(#clipPath2)"/>
      <text x="56.4652" xml:space="preserve" y="130.5352" clip-path="url(#clipPath2)" font-family="sans-serif" stroke="none">Node 3</text>
    </g>
    <g fill="rgb(255,204,0)" text-rendering="geometricPrecision" shape-rendering="geometricPrecision" transform="matrix(1,0,0,1,-5,15)" stroke="rgb(255,204,0)">
      <rect x="20.0001" width="55.8594" height="30" y="172" clip-path="url(#clipPath2)" stroke="none"/>
    </g>
    <g text-rendering="geometricPrecision" stroke-miterlimit="1.45" shape-rendering="geometricPrecision" transform="matrix(1,0,0,1,-5,15)" stroke-linecap="butt">
      <rect fill="none" x="20.0001" width="55.8594" height="30" y="172" clip-path="url(#clipPath2)"/>
      <text x="27.0001" xml:space="preserve" y="191.5352" clip-path="url(#clipPath2)" font-family="sans-serif" stroke="none">Node 4</text>
    </g>
    <g fill="rgb(255,204,0)" text-rendering="geometricPrecision" shape-rendering="geometricPrecision" transform="matrix(1,0,0,1,-5,15)" stroke="rgb(255,204,0)">
      <rect x="49.4652" width="55.8594" height="30" y="233" clip-path="url(#clipPath2)" stroke="none"/>
    </g>
    <g text-rendering="geometricPrecision" stroke-miterlimit="1.45" shape-rendering="geometricPrecision" transform="matrix(1,0,0,1,-5,15)" stroke-linecap="butt">
      <rect fill="none" x="49.4652" width="55.8594" height="30" y="233" clip-path="url(#clipPath2)"/>
      <text x="56.4652" xml:space="preserve" y="252.5352" clip-path="url(#clipPath2)" font-family="sans-serif" stroke="none">Node 5</text>
    </g>
    <g fill="rgb(255,204,0)" text-rendering="geometricPrecision" shape-rendering="geometricPrecision" transform="matrix(1,0,0,1,-5,15)" stroke="rgb(255,204,0)">
      <rect x="135.3247" width="55.8594" height="30" y="111" clip-path="url(#clipPath2)" stroke="none"/>
    </g>
    <g text-rendering="geometricPrecision" stroke-miterlimit="1.45" shape-rendering="geometricPrecision" transform="matrix(1,0,0,1,-5,15)" stroke-linecap="butt">
      <rect fill="none" x="135.3247" width="55.8594" height="30" y="111" clip-path="url(#clipPath2)"/>
      <text x="142.3247" xml:space="preserve" y="130.5352" clip-path="url(#clipPath2)" font-family="sans-serif" stroke="none">Node 5</text>
      <path fill="none" d="M77.3948 30 L77.3948 41.9609" clip-path="url(#clipPath2)"/>
      <path d="M77.3948 49.9609 L82.3948 37.9609 L77.3948 40.9609 L72.3948 37.9609 Z" clip-path="url(#clipPath2)" stroke="none"/>
      <path fill="none" d="M77.3948 80 L77.3948 102.9697" clip-path="url(#clipPath2)"/>
      <path d="M77.3948 110.9697 L82.3948 98.9697 L77.3948 101.9697 L72.3948 98.9697 Z" clip-path="url(#clipPath2)" stroke="none"/>
      <path fill="none" d="M63.43 141 L63.43 156.5 L61.8946 156.5 L61.8946 163.9697" clip-path="url(#clipPath2)"/>
      <path d="M61.8946 171.9697 L66.8946 159.9697 L61.8946 162.9697 L56.8946 159.9697 Z" clip-path="url(#clipPath2)" stroke="none"/>
      <path fill="none" d="M58.7751 80 L58.7751 95.5 L33.9651 95.5 L33.9649 163.9626" clip-path="url(#clipPath2)"/>
      <path d="M33.9649 171.9626 L38.9649 159.9627 L33.9649 162.9626 L28.9649 159.9626 Z" clip-path="url(#clipPath2)" stroke="none"/>
      <path fill="none" d="M47.9298 202 L47.9298 217.5 L63.43 217.5 L63.43 224.9697" clip-path="url(#clipPath2)"/>
      <path d="M63.43 232.9697 L68.43 220.9697 L63.43 223.9697 L58.43 220.9697 Z" clip-path="url(#clipPath2)" stroke="none"/>
      <path fill="none" d="M91.3597 141 L91.3597 224.9551" clip-path="url(#clipPath2)"/>
      <path d="M91.3597 232.9551 L96.3597 220.9551 L91.3597 223.9551 L86.3597 220.9551 Z" clip-path="url(#clipPath2)" stroke="none"/>
      <path fill="none" d="M96.0146 80 L96.0146 95.5 L163.2544 95.5 L163.2544 102.9697" clip-path="url(#clipPath2)"/>
      <path d="M163.2544 110.9697 L168.2544 98.9697 L163.2544 101.9697 L158.2544 98.9697 Z" clip-path="url(#clipPath2)" stroke="none"/>
    </g>
  </g>
</svg>
