<?xml version="1.0" encoding="UTF-8"?><svg xmlns="http://www.w3.org/2000/svg" xmlns:xlink="http://www.w3.org/1999/xlink" fill-opacity="1" color-rendering="auto" color-interpolation="auto" text-rendering="auto" stroke="black" stroke-linecap="square" width="157" stroke-miterlimit="10" shape-rendering="auto" stroke-opacity="1" fill="black" stroke-dasharray="none" font-weight="normal" stroke-width="1" height="404" font-family="'Dialog'" font-style="normal" stroke-linejoin="miter" font-size="12px" stroke-dashoffset="0" image-rendering="auto">
  <!--Generated by ySVG 2.6-->
  <defs id="genericDefs"/>
  <g>
    <defs id="defs1">
      <clipPath clipPathUnits="userSpaceOnUse" id="clipPath1">
        <path d="M0 0 L157 0 L157 404 L0 404 L0 0 Z"/>
      </clipPath>
      <clipPath clipPathUnits="userSpaceOnUse" id="clipPath2">
        <path d="M-21 -15 L136 -15 L136 389 L-21 389 L-21 -15 Z"/>
      </clipPath>
    </defs>
    <g fill="white" text-rendering="geometricPrecision" shape-rendering="geometricPrecision" transform="translate(21,15)" stroke="white">
      <rect x="-21" width="157" height="404" y="-15" clip-path="url(#clipPath2)" stroke="none"/>
    </g>
    <g fill="rgb(255,204,0)" text-rendering="geometricPrecision" shape-rendering="geometricPrecision" transform="matrix(1,0,0,1,21,15)" stroke="rgb(255,204,0)">
      <circle r="15" clip-path="url(#clipPath2)" cx="38" cy="65" stroke="none"/>
    </g>
    <g text-rendering="geometricPrecision" stroke-miterlimit="1.45" shape-rendering="geometricPrecision" transform="matrix(1,0,0,1,21,15)" stroke-linecap="butt">
      <circle fill="none" r="15" clip-path="url(#clipPath2)" cx="38" cy="65"/>
      <text x="34.2061" xml:space="preserve" y="69.5352" clip-path="url(#clipPath2)" font-family="sans-serif" stroke="none">1</text>
    </g>
    <g fill="rgb(255,204,0)" text-rendering="geometricPrecision" shape-rendering="geometricPrecision" transform="matrix(1,0,0,1,21,15)" stroke="rgb(255,204,0)">
      <circle r="15" clip-path="url(#clipPath2)" cx="105.5" cy="126" stroke="none"/>
    </g>
    <g text-rendering="geometricPrecision" stroke-miterlimit="1.45" shape-rendering="geometricPrecision" transform="matrix(1,0,0,1,21,15)" stroke-linecap="butt">
      <circle fill="none" r="15" clip-path="url(#clipPath2)" cx="105.5" cy="126"/>
      <text x="101.7061" xml:space="preserve" y="130.5352" clip-path="url(#clipPath2)" font-family="sans-serif" stroke="none">3</text>
    </g>
    <g fill="rgb(255,204,0)" text-rendering="geometricPrecision" shape-rendering="geometricPrecision" transform="matrix(1,0,0,1,21,15)" stroke="rgb(255,204,0)">
      <circle r="15" clip-path="url(#clipPath2)" cx="38" cy="126" stroke="none"/>
    </g>
    <g text-rendering="geometricPrecision" stroke-miterlimit="1.45" shape-rendering="geometricPrecision" transform="matrix(1,0,0,1,21,15)" stroke-linecap="butt">
      <circle fill="none" r="15" clip-path="url(#clipPath2)" cx="38" cy="126"/>
      <text x="34.2061" xml:space="preserve" y="130.5352" clip-path="url(#clipPath2)" font-family="sans-serif" stroke="none">2</text>
    </g>
    <g fill="rgb(255,204,0)" text-rendering="geometricPrecision" shape-rendering="geometricPrecision" transform="matrix(1,0,0,1,21,15)" stroke="rgb(255,204,0)">
      <circle r="15" clip-path="url(#clipPath2)" cx="30.5" cy="187" stroke="none"/>
    </g>
    <g text-rendering="geometricPrecision" stroke-miterlimit="1.45" shape-rendering="geometricPrecision" transform="matrix(1,0,0,1,21,15)" stroke-linecap="butt">
      <circle fill="none" r="15" clip-path="url(#clipPath2)" cx="30.5" cy="187"/>
      <text x="26.7061" xml:space="preserve" y="191.5352" clip-path="url(#clipPath2)" font-family="sans-serif" stroke="none">4</text>
    </g>
    <g fill="rgb(255,204,0)" text-rendering="geometricPrecision" shape-rendering="geometricPrecision" transform="matrix(1,0,0,1,21,15)" stroke="rgb(255,204,0)">
      <circle r="15" clip-path="url(#clipPath2)" cx="30.5" cy="237" stroke="none"/>
    </g>
    <g text-rendering="geometricPrecision" stroke-miterlimit="1.45" shape-rendering="geometricPrecision" transform="matrix(1,0,0,1,21,15)" stroke-linecap="butt">
      <circle fill="none" r="15" clip-path="url(#clipPath2)" cx="30.5" cy="237"/>
      <text x="26.7061" xml:space="preserve" y="241.5352" clip-path="url(#clipPath2)" font-family="sans-serif" stroke="none">5</text>
    </g>
    <g fill="rgb(255,204,0)" text-rendering="geometricPrecision" shape-rendering="geometricPrecision" transform="matrix(1,0,0,1,21,15)" stroke="rgb(255,204,0)">
      <circle r="15" clip-path="url(#clipPath2)" cx="83" cy="359" stroke="none"/>
    </g>
    <g text-rendering="geometricPrecision" stroke-miterlimit="1.45" shape-rendering="geometricPrecision" transform="matrix(1,0,0,1,21,15)" stroke-linecap="butt">
      <circle fill="none" r="15" clip-path="url(#clipPath2)" cx="83" cy="359"/>
      <text x="79.2061" xml:space="preserve" y="363.5352" clip-path="url(#clipPath2)" font-family="sans-serif" stroke="none">7</text>
    </g>
    <g fill="rgb(255,204,0)" text-rendering="geometricPrecision" shape-rendering="geometricPrecision" transform="matrix(1,0,0,1,21,15)" stroke="rgb(255,204,0)">
      <circle r="15" clip-path="url(#clipPath2)" cx="90.5" cy="187" stroke="none"/>
    </g>
    <g text-rendering="geometricPrecision" stroke-miterlimit="1.45" shape-rendering="geometricPrecision" transform="matrix(1,0,0,1,21,15)" stroke-linecap="butt">
      <circle fill="none" r="15" clip-path="url(#clipPath2)" cx="90.5" cy="187"/>
      <text x="86.7061" xml:space="preserve" y="191.5352" clip-path="url(#clipPath2)" font-family="sans-serif" stroke="none">6</text>
    </g>
    <g fill="rgb(255,204,0)" text-rendering="geometricPrecision" shape-rendering="geometricPrecision" transform="matrix(1,0,0,1,21,15)" stroke="rgb(255,204,0)">
      <circle r="15" clip-path="url(#clipPath2)" cx="83" cy="298" stroke="none"/>
    </g>
    <g text-rendering="geometricPrecision" stroke-miterlimit="1.45" shape-rendering="geometricPrecision" transform="matrix(1,0,0,1,21,15)" stroke-linecap="butt">
      <circle fill="none" r="15" clip-path="url(#clipPath2)" cx="83" cy="298"/>
      <text x="79.2061" xml:space="preserve" y="302.5352" clip-path="url(#clipPath2)" font-family="sans-serif" stroke="none">8</text>
    </g>
    <g fill="rgb(255,204,0)" text-rendering="geometricPrecision" shape-rendering="geometricPrecision" transform="matrix(1,0,0,1,21,15)" stroke="rgb(255,204,0)">
      <circle r="15" clip-path="url(#clipPath2)" cx="38" cy="15" stroke="none"/>
    </g>
    <g text-rendering="geometricPrecision" stroke-miterlimit="1.45" shape-rendering="geometricPrecision" transform="matrix(1,0,0,1,21,15)" stroke-linecap="butt">
      <circle fill="none" r="15" clip-path="url(#clipPath2)" cx="38" cy="15"/>
      <text x="34.2061" xml:space="preserve" y="19.5352" clip-path="url(#clipPath2)" font-family="sans-serif" stroke="none">0</text>
      <path fill="none" d="M48 76.194 L48 95.5 L105.5 95.5 L105.5 103" clip-path="url(#clipPath2)"/>
      <path d="M105.5 111 L110.5 99 L105.5 102 L100.5 99 Z" clip-path="url(#clipPath2)" stroke="none"/>
      <path fill="none" d="M38 80 L38 103" clip-path="url(#clipPath2)"/>
      <path d="M38 111 L43 99 L38 102 L33 99 Z" clip-path="url(#clipPath2)" stroke="none"/>
      <path fill="none" d="M30.5 139.001 L30.5 164" clip-path="url(#clipPath2)"/>
      <path d="M30.5 172 L35.5 160 L30.5 163 L25.5 160 Z" clip-path="url(#clipPath2)" stroke="none"/>
      <text x="-3.2939" xml:space="preserve" y="161.0352" clip-path="url(#clipPath2)" font-family="sans-serif" stroke="none">1</text>
      <path fill="none" d="M30.5 202 L30.5 214" clip-path="url(#clipPath2)"/>
      <path d="M30.5 222 L35.5 210 L30.5 213 L25.5 210 Z" clip-path="url(#clipPath2)" stroke="none"/>
      <text x="-3.2939" xml:space="preserve" y="216.5352" clip-path="url(#clipPath2)" font-family="sans-serif" stroke="none">1</text>
      <path fill="none" d="M28 76.194 L28 95.5 L0 95.5 L0 328.5 L73 328.5 L73 339.806" clip-path="url(#clipPath2)"/>
      <path d="M73 347.806 L78 335.806 L73 338.806 L68 335.806 Z" clip-path="url(#clipPath2)" stroke="none"/>
      <path fill="none" d="M113 139.003 L113 156.5 L121 156.5 L121 328.5 L93 328.5 L93 339.806" clip-path="url(#clipPath2)"/>
      <path d="M93 347.806 L98 335.806 L93 338.806 L88 335.806 Z" clip-path="url(#clipPath2)" stroke="none"/>
      <path fill="none" d="M45.5 139.003 L45.5 156.5 L83 156.5 L83 165.997" clip-path="url(#clipPath2)"/>
      <path d="M83 173.997 L88 161.997 L83 164.997 L78 161.997 Z" clip-path="url(#clipPath2)" stroke="none"/>
      <path fill="none" d="M98 139.003 L98 165.997" clip-path="url(#clipPath2)"/>
      <path d="M98 173.997 L103 161.997 L98 164.997 L93 161.997 Z" clip-path="url(#clipPath2)" stroke="none"/>
      <path fill="none" d="M90.5 202 L90.5 276.9907" clip-path="url(#clipPath2)"/>
      <path d="M90.5 284.9907 L95.5 272.9907 L90.5 275.9907 L85.5 272.9907 Z" clip-path="url(#clipPath2)" stroke="none"/>
      <path fill="none" d="M30.5 252 L30.5 267.5 L75.5 267.5 L75.5 276.997" clip-path="url(#clipPath2)"/>
      <path d="M75.5 284.997 L80.5 272.997 L75.5 275.997 L70.5 272.997 Z" clip-path="url(#clipPath2)" stroke="none"/>
      <path fill="none" d="M83 313 L83 336" clip-path="url(#clipPath2)"/>
      <path d="M83 344 L88 332 L83 335 L78 332 Z" clip-path="url(#clipPath2)" stroke="none"/>
      <path fill="none" d="M38 30 L38 42" clip-path="url(#clipPath2)"/>
      <path d="M38 50 L43 38 L38 41 L33 38 Z" clip-path="url(#clipPath2)" stroke="none"/>
    </g>
  </g>
</svg>
